<svg width="150" height="148" viewBox="0 0 150 148" fill="none" xmlns="http://www.w3.org/2000/svg">
<path fill-rule="evenodd" clip-rule="evenodd" d="M78.1383 109.713C79.0102 108.435 80.7527 108.106 82.0302 108.978C83.3077 109.85 83.6365 111.591 82.7645 112.869L72.6603 127.654C72.1186 128.448 71.2408 128.875 70.3472 128.877V128.882H34.5624C33.0125 128.882 31.7553 127.625 31.7553 126.075C31.7553 125.435 31.9711 124.844 32.3318 124.372L49.7882 98.1121C49.5 98.1425 49.2132 98.17 48.9278 98.1932C48.024 98.2656 47.1188 98.3018 46.2164 98.3018C39.319 98.3018 33.0154 97.0475 27.3043 94.5402C24.4683 93.296 21.8307 91.8186 19.3901 90.111C16.9553 88.4062 14.7233 86.4696 12.694 84.3013C10.659 82.1258 8.86292 79.7663 7.30875 77.2272C5.75025 74.6823 4.41915 71.9433 3.314 69.0074C2.20451 66.0598 1.37455 63.0312 0.825596 59.9243C0.275194 56.8087 0 53.6091 0 50.3241C0 46.5799 0.354864 42.9792 1.06749 39.5232C1.78156 36.0571 2.8505 32.7793 4.27141 29.6942C5.68362 26.6279 7.3609 23.7687 9.29889 21.1209C11.2398 18.4689 13.4385 16.0355 15.8907 13.8252C18.3385 11.6178 21.0065 9.65956 23.8918 7.94896C26.7524 6.25286 29.8347 4.80298 33.1385 3.59789C36.4323 2.39714 39.8578 1.49767 43.4093 0.899467C46.9725 0.301267 50.6457 0 54.429 0C61.9043 0 68.9654 1.20074 75.6108 3.59789C78.9421 4.80008 82.049 6.24996 84.9314 7.94896C87.8514 9.66969 90.5324 11.6294 92.9687 13.8252C94.1187 14.8608 94.2114 16.6323 93.1773 17.7823C92.1416 18.9324 90.3702 19.0251 89.2202 17.9909C87.0287 16.0152 84.6562 14.2757 82.1026 12.7708C79.5099 11.2427 76.7159 9.93764 73.7264 8.85856C67.727 6.69461 61.2945 5.61265 54.429 5.61265C50.9122 5.61265 47.546 5.8835 44.3305 6.42377C41.1049 6.96693 38.0096 7.77949 35.0461 8.85856C32.0942 9.93619 29.3248 11.2398 26.7423 12.7708C24.1858 14.2858 21.8176 16.0268 19.6392 17.9909C17.4637 19.9506 15.5213 22.0986 13.8136 24.4306C12.1031 26.7698 10.6155 29.3075 9.35683 32.0406C8.10539 34.7564 7.1697 37.6229 6.54833 40.6414C5.92406 43.6701 5.6112 46.8986 5.6112 50.3241C5.6112 53.2963 5.85743 56.1758 6.3499 58.9596C6.84236 61.7508 7.57816 64.4434 8.5544 67.0346C9.53498 69.6403 10.7126 72.0664 12.0871 74.313C13.466 76.5638 15.0274 78.622 16.7713 80.4861C18.5239 82.359 20.4648 84.0406 22.5911 85.5296C24.713 87.0157 27.0305 88.3091 29.5392 89.4114C34.5174 91.597 40.0765 92.6891 46.2164 92.6891C47.0072 92.6891 47.7662 92.6602 48.489 92.6022C49.2494 92.5414 49.9678 92.4545 50.6457 92.3415C51.4148 92.2141 52.1636 92.0736 52.8849 91.9244C53.5758 91.7795 54.3203 91.6086 55.1184 91.4087C55.8542 91.2277 56.6624 91.3407 57.3432 91.7926C58.6338 92.6457 58.9857 94.3838 58.1326 95.6729L39.7883 123.27H68.8727L78.1383 109.713Z" fill="#DFEC53"/>
<path fill-rule="evenodd" clip-rule="evenodd" d="M89.5985 81.4421C88.7454 82.7312 87.0073 83.0846 85.7182 82.2315C84.4291 81.3784 84.0757 79.6403 84.9288 78.3512L97.3476 59.5694L90.1692 58.9538C88.6252 58.8278 87.478 57.4721 87.604 55.9295C87.646 55.4168 87.8242 54.9475 88.0979 54.555C90.5704 50.5776 92.9285 46.3786 95.2735 42.1999C107.195 20.9631 118.86 0.186831 147.425 2.64916C148.97 2.77662 150.118 4.1309 149.991 5.67492C149.947 6.21229 149.753 6.70186 149.456 7.10597L94.3175 94.6155C93.4933 95.9235 91.7654 96.316 90.4589 95.4933C89.1524 94.6691 88.7584 92.9426 89.5826 91.6347L142.224 8.088C120.559 8.61378 110.463 26.5902 100.162 44.9389C98.5107 47.8821 96.8522 50.8354 95.1315 53.7496L102.514 54.3826V54.387C102.969 54.4246 103.422 54.5738 103.829 54.8432C105.12 55.6978 105.472 57.4344 104.619 58.7235L89.5985 81.4421Z" fill="#DFEC53"/>
<path fill-rule="evenodd" clip-rule="evenodd" d="M57.529 19.1237C56.8685 17.7259 57.4681 16.0573 58.8659 15.3969C60.2636 14.7378 61.9322 15.336 62.5927 16.7352L75.8574 44.9173C78.5876 50.7197 78.6977 57.1116 76.6728 62.7343C74.6479 68.3615 70.4909 73.2195 64.6914 75.9498C58.8862 78.6815 52.4957 78.7902 46.8729 76.7667C41.2458 74.7418 36.3877 70.5848 33.6589 64.7853L20.7418 37.3434C20.0828 35.9457 20.6825 34.2771 22.0802 33.6166C23.4779 32.9576 25.1465 33.5572 25.807 34.955L38.7226 62.394C40.7997 66.8088 44.4888 69.9692 48.7588 71.506C53.0316 73.0442 57.8896 72.9617 62.2972 70.8875L62.3015 70.8846C66.7149 68.8076 69.8754 65.1185 71.4121 60.8485C72.9504 56.5742 72.8678 51.7162 70.7937 47.3057L57.529 19.1237Z" fill="black"/>
<path fill-rule="evenodd" clip-rule="evenodd" d="M48.4169 30.5849L61.4962 58.3759C62.1567 59.7736 63.8252 60.3733 65.223 59.7128C66.6207 59.0537 67.2203 57.3837 66.5613 55.986L53.4806 28.1965C52.8216 26.7987 51.153 26.1991 49.7538 26.8596C48.3561 27.5186 47.7564 29.1872 48.4169 30.5849ZM35.5215 36.3989C34.8611 35.0012 35.4607 33.3326 36.8584 32.6735C38.2562 32.0131 39.9262 32.6127 40.5852 34.0104L53.763 62.01C54.4235 63.4077 53.8239 65.0763 52.4261 65.7368C51.0284 66.3958 49.3584 65.7976 48.6993 64.3984L35.5215 36.3989Z" fill="black"/>
<path fill-rule="evenodd" clip-rule="evenodd" d="M72.8603 105.099L60.6139 75.4936C60.0273 74.0655 58.392 73.3832 56.9638 73.9699C55.5357 74.5565 54.8535 76.1917 55.4401 77.6199L67.6865 107.226C68.2732 108.654 69.9084 109.336 71.3366 108.749C72.7647 108.163 73.4469 106.528 72.8603 105.099ZM66.9247 72.5069C66.2048 71.1396 66.7292 69.4464 68.0979 68.7266C69.4652 68.0052 71.1584 68.531 71.8783 69.8983L103.661 129.826C103.747 129.985 103.826 130.146 103.902 130.305C105.279 133.232 105.288 136.452 104.239 139.307C103.209 142.113 101.142 144.581 98.3483 146.067L98.3497 146.071C98.2397 146.13 98.0557 146.22 97.8196 146.332L97.2794 146.571L97.1171 146.633C94.2362 147.779 91.0815 147.782 88.3121 146.805C85.4428 145.794 82.9674 143.736 81.59 140.812L81.3684 140.302L77.4489 130.825C76.8623 129.397 77.5445 127.762 78.9727 127.175C80.4008 126.588 82.0347 127.271 82.6227 128.699L86.603 138.319L86.6552 138.422C87.3605 139.922 88.6583 140.987 90.1748 141.522C91.7044 142.06 93.4396 142.066 95.0241 141.446L95.3529 141.306L95.7194 141.117L95.7223 141.122L95.731 141.117C97.2663 140.302 98.4062 138.936 98.9784 137.378C99.5331 135.867 99.5418 134.19 98.8379 132.693L98.7075 132.434L66.9247 72.5069Z" fill="black"/>
</svg>
