<svg width="150" height="148" viewBox="0 0 150 148" fill="none" xmlns="http://www.w3.org/2000/svg">
<path fill-rule="evenodd" clip-rule="evenodd" d="M78.1383 109.713C79.0102 108.435 80.7527 108.106 82.0302 108.978C83.3077 109.85 83.6365 111.591 82.7645 112.869L72.6603 127.654C72.1186 128.448 71.2408 128.875 70.3472 128.877V128.882H34.5624C33.0125 128.882 31.7553 127.625 31.7553 126.075C31.7553 125.435 31.9711 124.844 32.3318 124.372L49.7882 98.1121C49.5 98.1425 49.2132 98.17 48.9278 98.1932C48.024 98.2656 47.1188 98.3018 46.2164 98.3018C39.319 98.3018 33.0154 97.0475 27.3043 94.5402C24.4683 93.296 21.8307 91.8186 19.3901 90.111C16.9553 88.4062 14.7233 86.4696 12.694 84.3013C10.659 82.1258 8.86292 79.7663 7.30875 77.2272C5.75025 74.6823 4.41915 71.9433 3.314 69.0074C2.20451 66.0598 1.37455 63.0312 0.825596 59.9243C0.275194 56.8087 0 53.6091 0 50.3241C0 46.5799 0.354864 42.9792 1.06749 39.5232C1.78156 36.0571 2.8505 32.7793 4.27141 29.6942C5.68362 26.6279 7.3609 23.7687 9.29889 21.1209C11.2398 18.4689 13.4385 16.0355 15.8907 13.8252C18.3385 11.6178 21.0065 9.65956 23.8918 7.94896C26.7524 6.25286 29.8347 4.80298 33.1385 3.59789C36.4323 2.39714 39.8578 1.49767 43.4093 0.899467C46.9725 0.301267 50.6457 0 54.429 0C61.9043 0 68.9654 1.20074 75.6108 3.59789C78.9421 4.80008 82.049 6.24996 84.9314 7.94896C87.8514 9.66969 90.5324 11.6294 92.9687 13.8252C94.1187 14.8608 94.2114 16.6323 93.1773 17.7823C92.1416 18.9324 90.3702 19.0251 89.2202 17.9909C87.0287 16.0152 84.6562 14.2757 82.1026 12.7708C79.5099 11.2427 76.7159 9.93764 73.7264 8.85856C67.727 6.69461 61.2945 5.61265 54.429 5.61265C50.9122 5.61265 47.546 5.8835 44.3305 6.42377C41.1049 6.96693 38.0096 7.77949 35.0461 8.85856C32.0942 9.93619 29.3248 11.2398 26.7423 12.7708C24.1858 14.2858 21.8176 16.0268 19.6392 17.9909C17.4637 19.9506 15.5213 22.0986 13.8136 24.4306C12.1031 26.7698 10.6155 29.3075 9.35683 32.0406C8.10539 34.7564 7.1697 37.6229 6.54833 40.6414C5.92406 43.6701 5.6112 46.8986 5.6112 50.3241C5.6112 53.2963 5.85743 56.1758 6.3499 58.9596C6.84236 61.7508 7.57816 64.4434 8.5544 67.0346C9.53498 69.6403 10.7126 72.0664 12.0871 74.313C13.466 76.5638 15.0274 78.622 16.7713 80.4861C18.5239 82.359 20.4648 84.0406 22.5911 85.5296C24.713 87.0157 27.0305 88.3091 29.5392 89.4114C34.5174 91.597 40.0765 92.6891 46.2164 92.6891C47.0072 92.6891 47.7662 92.6602 48.489 92.6022C49.2494 92.5414 49.9678 92.4545 50.6457 92.3415C51.4148 92.2141 52.1636 92.0736 52.8849 91.9244C53.5758 91.7795 54.3203 91.6086 55.1184 91.4087C55.8542 91.2277 56.6624 91.3407 57.3432 91.7926C58.6338 92.6457 58.9857 94.3838 58.1326 95.6729L39.7883 123.27H68.8727L78.1383 109.713Z" fill="white"/>
<path fill-rule="evenodd" clip-rule="evenodd" d="M89.5983 81.4421C88.7451 82.7312 87.007 83.0846 85.7179 82.2315C84.4288 81.3784 84.0754 79.6403 84.9285 78.3512L97.3474 59.5694L90.1689 58.9538C88.6249 58.8278 87.4778 57.4721 87.6038 55.9295C87.6458 55.4168 87.824 54.9475 88.0977 54.555C90.5702 50.5776 92.9282 46.3786 95.2732 42.1999C107.195 20.9631 118.859 0.186831 147.425 2.64916C148.969 2.77662 150.118 4.1309 149.99 5.67492C149.947 6.21229 149.753 6.70186 149.456 7.10597L94.3172 94.6155C93.4931 95.9235 91.7651 96.316 90.4586 95.4933C89.1521 94.6691 88.7582 92.9426 89.5823 91.6347L142.224 8.088C120.558 8.61378 110.463 26.5902 100.162 44.9389C98.5104 47.8821 96.852 50.8354 95.1313 53.7496L102.514 54.3826V54.387C102.969 54.4246 103.422 54.5738 103.829 54.8432C105.12 55.6978 105.472 57.4344 104.618 58.7235L89.5983 81.4421Z" fill="white"/>
<path fill-rule="evenodd" clip-rule="evenodd" d="M57.5285 19.1235C56.868 17.7258 57.4676 16.0572 58.8654 15.3967C60.2631 14.7377 61.9317 15.3359 62.5922 16.7351L75.8569 44.9171C78.5872 50.7195 78.6972 57.1114 76.6723 62.7342C74.6474 68.3614 70.4905 73.2194 64.691 75.9497C58.8857 78.6814 52.4952 78.79 46.8724 76.7666C41.2453 74.7417 36.3873 70.5847 33.6584 64.7852L20.7414 37.3433C20.0823 35.9456 20.682 34.277 22.0797 33.6165C23.4774 32.9575 25.146 33.5571 25.8065 34.9548L38.7221 62.3938C40.7992 66.8086 44.4883 69.9691 48.7583 71.5059C53.0311 73.0441 57.8891 72.9616 62.2967 70.8874L62.3011 70.8845C66.7144 68.8075 69.8749 65.1183 71.4116 60.8484C72.9499 56.5741 72.8673 51.716 70.7932 47.3056L57.5285 19.1235Z" fill="#DFEC53"/>
<path fill-rule="evenodd" clip-rule="evenodd" d="M48.4164 30.5849L61.4957 58.3759C62.1562 59.7736 63.8248 60.3733 65.2225 59.7128C66.6202 59.0537 67.2199 57.3837 66.5608 55.986L53.4801 28.1965C52.8211 26.7987 51.1525 26.1991 49.7533 26.8596C48.3556 27.5186 47.7559 29.1872 48.4164 30.5849ZM35.5211 36.3989C34.8606 35.0012 35.4602 33.3326 36.858 32.6735C38.2557 32.0131 39.9257 32.6127 40.5848 34.0104L53.7625 62.01C54.423 63.4077 53.8234 65.0763 52.4256 65.7368C51.0279 66.3958 49.3579 65.7976 48.6988 64.3984L35.5211 36.3989Z" fill="#DFEC53"/>
<path fill-rule="evenodd" clip-rule="evenodd" d="M72.8601 105.099L60.6136 75.4935C60.027 74.0653 58.3917 73.3831 56.9636 73.9697C55.5355 74.5563 54.8533 76.1916 55.4399 77.6198L67.6863 107.226C68.2729 108.654 69.9082 109.336 71.3363 108.749C72.7645 108.163 73.4467 106.527 72.8601 105.099ZM66.9244 72.5068C66.2046 71.1395 66.7289 69.4463 68.0977 68.7264C69.465 68.0051 71.1582 68.5309 71.8781 69.8982L103.661 129.825C103.746 129.985 103.826 130.145 103.901 130.305C105.279 133.232 105.287 136.452 104.239 139.307C103.209 142.112 101.142 144.581 98.3481 146.067L98.3495 146.071C98.2394 146.13 98.0555 146.22 97.8194 146.332L97.2791 146.571L97.1169 146.633C94.236 147.779 91.0813 147.782 88.3119 146.805C85.4426 145.794 82.9672 143.736 81.5897 140.812L81.3682 140.302L77.4487 130.825C76.8621 129.397 77.5443 127.761 78.9724 127.175C80.4006 126.588 82.0344 127.27 82.6225 128.699L86.6027 138.319L86.6549 138.422C87.3603 139.922 88.6581 140.987 90.1746 141.521C91.7041 142.06 93.4393 142.066 95.0239 141.446L95.3527 141.306L95.7192 141.117L95.7221 141.122L95.7307 141.117C97.2661 140.302 98.406 138.936 98.9781 137.377C99.5329 135.867 99.5416 134.189 98.8376 132.693L98.7073 132.434L66.9244 72.5068Z" fill="#DFEC53"/>
</svg>
