<?xml version="1.0" encoding="UTF-8" standalone="no"?>
<!DOCTYPE svg PUBLIC "-//W3C//DTD SVG 1.1//EN" "http://www.w3.org/Graphics/SVG/1.1/DTD/svg11.dtd">
<svg width="100%" height="100%" viewBox="0 0 17717 14942" version="1.1" xmlns="http://www.w3.org/2000/svg" xmlns:xlink="http://www.w3.org/1999/xlink" xml:space="preserve" xmlns:serif="http://www.serif.com/" style="fill-rule:evenodd;clip-rule:evenodd;stroke-linejoin:round;stroke-miterlimit:2;">
    <g transform="matrix(4.16667,0,0,4.16667,0,0)">
        <path d="M1711.38,2068.76C1717.4,2059.94 1729.43,2057.67 1738.25,2063.69C1747.07,2069.71 1749.34,2081.73 1743.32,2090.55L1673.56,2192.63C1669.82,2198.11 1663.76,2201.06 1657.59,2201.07L1657.59,2201.11L1410.53,2201.11C1399.83,2201.11 1391.15,2192.43 1391.15,2181.73C1391.15,2177.31 1392.64,2173.23 1395.13,2169.97L1515.65,1988.67C1513.66,1988.88 1511.68,1989.07 1509.71,1989.23C1503.47,1989.73 1497.22,1989.98 1490.99,1989.98C1443.37,1989.98 1399.85,1981.32 1360.42,1964.01C1340.84,1955.42 1322.63,1945.22 1305.78,1933.43C1288.97,1921.66 1273.56,1908.29 1259.55,1893.32C1245.5,1878.3 1233.1,1862.01 1222.37,1844.48C1211.61,1826.91 1202.42,1808 1194.79,1787.73C1187.13,1767.38 1181.4,1746.47 1177.61,1725.02C1173.81,1703.51 1171.91,1681.42 1171.91,1658.74C1171.91,1632.89 1174.36,1608.03 1179.28,1584.17C1184.21,1560.24 1191.59,1537.61 1201.4,1516.31C1211.15,1495.14 1222.73,1475.4 1236.11,1457.12C1249.51,1438.81 1264.69,1422.01 1281.62,1406.75C1298.52,1391.51 1316.94,1377.99 1336.86,1366.18C1356.61,1354.47 1377.89,1344.46 1400.7,1336.14C1423.44,1327.85 1447.09,1321.64 1471.61,1317.51C1496.21,1313.38 1521.57,1311.3 1547.69,1311.3C1599.3,1311.3 1648.05,1319.59 1693.93,1336.14C1716.93,1344.44 1738.38,1354.45 1758.28,1366.18C1778.44,1378.06 1796.95,1391.59 1813.77,1406.75C1821.71,1413.9 1822.35,1426.13 1815.21,1434.07C1808.06,1442.01 1795.83,1442.65 1787.89,1435.51C1772.76,1421.87 1756.38,1409.86 1738.75,1399.47C1720.85,1388.92 1701.56,1379.91 1680.92,1372.46C1639.5,1357.52 1595.09,1350.05 1547.69,1350.05C1523.41,1350.05 1500.17,1351.92 1477.97,1355.65C1455.7,1359.4 1434.33,1365.01 1413.87,1372.46C1393.49,1379.9 1374.37,1388.9 1356.54,1399.47C1338.89,1409.93 1322.54,1421.95 1307.5,1435.51C1292.48,1449.04 1279.07,1463.87 1267.28,1479.97C1255.47,1496.12 1245.2,1513.64 1236.51,1532.51C1227.87,1551.26 1221.41,1571.05 1217.12,1591.89C1212.81,1612.8 1210.65,1635.09 1210.65,1658.74C1210.65,1679.26 1212.35,1699.14 1215.75,1718.36C1219.15,1737.63 1224.23,1756.22 1230.97,1774.11C1237.74,1792.1 1245.87,1808.85 1255.36,1824.36C1264.88,1839.9 1275.66,1854.11 1287.7,1866.98C1299.8,1879.91 1313.2,1891.52 1327.88,1901.8C1342.53,1912.06 1358.53,1920.99 1375.85,1928.6C1410.22,1943.69 1448.6,1951.23 1490.99,1951.23C1496.45,1951.23 1501.69,1951.03 1506.68,1950.63C1511.93,1950.21 1516.89,1949.61 1521.57,1948.83C1526.88,1947.95 1532.05,1946.98 1537.03,1945.95C1541.8,1944.95 1546.94,1943.77 1552.45,1942.39C1557.53,1941.14 1563.11,1941.92 1567.81,1945.04C1576.72,1950.93 1579.15,1962.93 1573.26,1971.83L1446.61,2162.36L1647.41,2162.36L1711.38,2068.76Z" style="fill:rgb(223,236,83);"/>
        <path d="M1790.5,1873.58C1784.61,1882.48 1772.61,1884.92 1763.71,1879.03C1754.81,1873.14 1752.37,1861.14 1758.26,1852.24L1844,1722.57L1794.44,1718.32C1783.78,1717.45 1775.86,1708.09 1776.73,1697.44C1777.02,1693.9 1778.25,1690.66 1780.14,1687.95C1797.21,1660.49 1813.49,1631.5 1829.68,1602.65C1911.99,1456.03 1992.52,1312.59 2189.74,1329.59C2200.4,1330.47 2208.33,1339.82 2207.45,1350.48C2207.15,1354.19 2205.81,1357.57 2203.76,1360.36L1823.08,1964.53C1817.39,1973.56 1805.46,1976.27 1796.44,1970.59C1787.42,1964.9 1784.7,1952.98 1790.39,1943.95L2153.83,1367.14C2004.25,1370.77 1934.55,1494.88 1863.43,1621.56C1852.03,1641.88 1840.58,1662.27 1828.7,1682.39L1879.67,1686.76L1879.67,1686.79C1882.81,1687.05 1885.94,1688.08 1888.75,1689.94C1897.66,1695.84 1900.09,1707.83 1894.2,1716.73L1790.5,1873.58Z" style="fill:rgb(223,236,83);"/>
        <path d="M1569.09,1443.33C1564.53,1433.68 1568.67,1422.16 1578.32,1417.6C1587.97,1413.05 1599.49,1417.18 1604.05,1426.84L1695.63,1621.41C1714.48,1661.47 1715.24,1705.6 1701.26,1744.42C1687.28,1783.27 1658.58,1816.81 1618.54,1835.66C1578.46,1854.52 1534.34,1855.27 1495.52,1841.3C1456.67,1827.32 1423.13,1798.62 1404.29,1758.58L1315.11,1569.12C1310.56,1559.47 1314.7,1547.95 1324.35,1543.39C1334,1538.84 1345.52,1542.98 1350.08,1552.63L1439.25,1742.07C1453.59,1772.55 1479.06,1794.37 1508.54,1804.98C1538.04,1815.6 1571.58,1815.03 1602.01,1800.71L1602.04,1800.69C1632.51,1786.35 1654.33,1760.88 1664.94,1731.4C1675.56,1701.89 1674.99,1668.35 1660.67,1637.9L1569.09,1443.33Z"/>
        <path d="M1506.18,1522.46L1596.48,1714.33C1601.04,1723.98 1612.56,1728.12 1622.21,1723.56C1631.86,1719.01 1636,1707.48 1631.45,1697.83L1541.14,1505.97C1536.59,1496.32 1525.07,1492.18 1515.41,1496.74C1505.76,1501.29 1501.62,1512.81 1506.18,1522.46ZM1417.15,1562.6C1412.59,1552.95 1416.73,1541.43 1426.38,1536.88C1436.03,1532.32 1447.56,1536.46 1452.11,1546.11L1543.09,1739.42C1547.65,1749.07 1543.51,1760.59 1533.86,1765.15C1524.21,1769.7 1512.68,1765.57 1508.13,1755.91L1417.15,1562.6Z"/>
        <path d="M1674.94,2036.91L1590.39,1832.51C1586.34,1822.65 1575.05,1817.94 1565.19,1821.99C1555.33,1826.04 1550.62,1837.33 1554.67,1847.19L1639.22,2051.59C1643.27,2061.45 1654.56,2066.16 1664.42,2062.11C1674.28,2058.06 1678.99,2046.77 1674.94,2036.91ZM1633.96,1811.89C1628.99,1802.45 1632.61,1790.76 1642.06,1785.79C1651.5,1780.81 1663.19,1784.44 1668.16,1793.88L1887.59,2207.62C1888.18,2208.72 1888.73,2209.83 1889.25,2210.93C1898.76,2231.14 1898.82,2253.37 1891.58,2273.08C1884.47,2292.45 1870.2,2309.49 1850.91,2319.75L1850.92,2319.78C1850.16,2320.19 1848.89,2320.81 1847.26,2321.58L1843.53,2323.23L1842.41,2323.66C1822.52,2331.57 1800.74,2331.59 1781.62,2324.85C1761.81,2317.87 1744.72,2303.66 1735.21,2283.47L1733.68,2279.95L1706.62,2214.52C1702.57,2204.66 1707.28,2193.37 1717.14,2189.32C1727,2185.27 1738.28,2189.98 1742.34,2199.84L1769.82,2266.26L1770.18,2266.97C1775.05,2277.33 1784.01,2284.68 1794.48,2288.37C1805.04,2292.09 1817.02,2292.13 1827.96,2287.85L1830.23,2286.88L1832.76,2285.58L1832.78,2285.61L1832.84,2285.58C1843.44,2279.95 1851.31,2270.52 1855.26,2259.76C1859.09,2249.33 1859.15,2237.75 1854.29,2227.42L1853.39,2225.63L1633.96,1811.89Z"/>
    </g>
</svg>
